<?xml version="1.0" encoding="utf-8"?>
<!-- Generator: Adobe Illustrator 24.2.1, SVG Export Plug-In . SVG Version: 6.00 Build 0)  -->
<svg version="1.1" id="Layer_1" xmlns="http://www.w3.org/2000/svg" xmlns:xlink="http://www.w3.org/1999/xlink" x="0px" y="0px"
	 viewBox="0 0 260 260" style="enable-background:new 0 0 260 260;" xml:space="preserve">
<style type="text/css">
	.st0{fill:#BFBFBF;}
</style>
<g>
	<g>
		<path class="st0" d="M15.69,34.96L33.13,76.2H22.8l-2.86-7l-0.29-0.72h-0.78H2.19H1.41l-0.29,0.73l-2.8,6.99h-10.08L5.68,34.96
			H15.69 M4.01,61.52h1.7h9.7h1.7l-0.62-1.58l-4.82-12.29l-1.07-2.73l-1.08,2.73L4.64,59.94L4.01,61.52 M16.46,33.8H4.91
			L-13.5,77.36h12.6l3.09-7.72h16.68l3.15,7.72h12.85L16.46,33.8L16.46,33.8z M5.71,60.37l4.88-12.29l4.82,12.29H5.71L5.71,60.37z"
			/>
		<path class="st0" d="M-23.06,52.01l14.78,0.03l-1.7,3.99L-16.43,56c-0.83-0.06-3.13-0.37-4.26-1.2
			C-21.74,54.04-22.53,52.92-23.06,52.01 M-24.91,50.84c0,0,1.17,3.16,3.54,4.9c1.68,1.22,4.9,1.42,4.9,1.42l7.25,0.02l2.68-6.3
			L-24.91,50.84L-24.91,50.84z"/>
		<path class="st0" d="M-4.65,43.51l-1.72,4.04l-15.41,0c-0.83-0.06-3.13-0.37-4.25-1.19c-1.06-0.77-1.85-1.9-2.38-2.81L-4.65,43.51
			 M-2.9,42.35l-27.36,0.05c0,0,1.17,3.16,3.55,4.9c1.68,1.22,4.9,1.42,4.9,1.42l16.21,0L-2.9,42.35L-2.9,42.35z"/>
		<path class="st0" d="M-1.06,35.09l-1.7,3.99l-23.85,0.04c-0.83-0.06-3.13-0.37-4.25-1.19c-1.06-0.77-1.85-1.9-2.38-2.81
			L-1.06,35.09 M0.69,33.93l-35.78,0.03c0,0,1.17,3.16,3.55,4.9c1.68,1.22,4.9,1.42,4.9,1.42L-2,40.23L0.69,33.93L0.69,33.93z"/>
	</g>
	<g>
		<path class="st0" d="M275.92,34.96l17.43,41.24h-10.33l-2.86-7l-0.29-0.72h-0.78h-16.68h-0.78l-0.29,0.73l-2.8,6.99h-10.08
			l17.43-41.24H275.92 M264.23,61.52h1.7h9.7h1.7l-0.62-1.58l-4.82-12.29l-1.07-2.73l-1.08,2.73l-4.88,12.29L264.23,61.52
			 M276.68,33.8h-11.55l-18.41,43.56h12.6l3.09-7.72h16.68l3.15,7.72h12.85L276.68,33.8L276.68,33.8z M265.93,60.37l4.88-12.29
			l4.82,12.29H265.93L265.93,60.37z"/>
		<path class="st0" d="M237.16,52.01l14.78,0.03l-1.7,3.99L243.79,56c-0.83-0.06-3.13-0.37-4.26-1.2
			C238.49,54.04,237.69,52.92,237.16,52.01 M235.31,50.84c0,0,1.17,3.16,3.54,4.9c1.68,1.22,4.9,1.42,4.9,1.42l7.25,0.02l2.68-6.3
			L235.31,50.84L235.31,50.84z"/>
		<path class="st0" d="M255.57,43.51l-1.72,4.04l-15.41,0c-0.83-0.06-3.13-0.37-4.25-1.19c-1.06-0.77-1.85-1.9-2.38-2.81
			L255.57,43.51 M257.32,42.35l-27.36,0.05c0,0,1.17,3.16,3.55,4.9c1.68,1.22,4.9,1.42,4.9,1.42l16.21,0L257.32,42.35L257.32,42.35z
			"/>
		<path class="st0" d="M259.16,35.09l-1.7,3.99l-23.85,0.04c-0.83-0.06-3.13-0.37-4.25-1.19c-1.06-0.77-1.85-1.9-2.38-2.81
			L259.16,35.09 M260.91,33.93l-35.78,0.03c0,0,1.17,3.16,3.55,4.9c1.68,1.22,4.9,1.42,4.9,1.42l24.66-0.04L260.91,33.93
			L260.91,33.93z"/>
	</g>
	<g>
		<path class="st0" d="M15.69,183.8l17.43,41.24H22.8l-2.86-7l-0.29-0.72h-0.78H2.19H1.41l-0.29,0.73l-2.8,6.99h-10.08L5.68,183.8
			H15.69 M4.01,210.37h1.7h9.7h1.7l-0.62-1.58l-4.82-12.29l-1.07-2.73l-1.08,2.73l-4.88,12.29L4.01,210.37 M16.46,182.64H4.91
			L-13.5,226.2h12.6l3.09-7.72h16.68l3.15,7.72h12.85L16.46,182.64L16.46,182.64z M5.71,209.21l4.88-12.29l4.82,12.29H5.71
			L5.71,209.21z"/>
		<path class="st0" d="M-23.06,200.85l14.78,0.03l-1.7,3.99l-6.45-0.02c-0.83-0.06-3.13-0.37-4.26-1.2
			C-21.74,202.88-22.53,201.76-23.06,200.85 M-24.91,199.69c0,0,1.17,3.16,3.54,4.9c1.68,1.22,4.9,1.42,4.9,1.42l7.25,0.02l2.68-6.3
			L-24.91,199.69L-24.91,199.69z"/>
		<path class="st0" d="M-4.65,192.36l-1.72,4.04l-15.41,0c-0.83-0.06-3.13-0.37-4.25-1.19c-1.06-0.77-1.85-1.9-2.38-2.81
			L-4.65,192.36 M-2.9,191.2l-27.36,0.05c0,0,1.17,3.16,3.55,4.9c1.68,1.22,4.9,1.42,4.9,1.42l16.21,0L-2.9,191.2L-2.9,191.2z"/>
		<path class="st0" d="M-1.06,183.93l-1.7,3.99l-23.85,0.04c-0.83-0.06-3.13-0.37-4.25-1.19c-1.06-0.77-1.85-1.9-2.38-2.81
			L-1.06,183.93 M0.69,182.77l-35.78,0.03c0,0,1.17,3.16,3.55,4.9c1.68,1.22,4.9,1.42,4.9,1.42L-2,189.08L0.69,182.77L0.69,182.77z"
			/>
	</g>
	<g>
		<path class="st0" d="M275.92,183.8l17.43,41.24h-10.33l-2.86-7l-0.29-0.72h-0.78h-16.68h-0.78l-0.29,0.73l-2.8,6.99h-10.08
			l17.43-41.24H275.92 M264.23,210.37h1.7h9.7h1.7l-0.62-1.58l-4.82-12.29l-1.07-2.73l-1.08,2.73l-4.88,12.29L264.23,210.37
			 M276.68,182.64h-11.55l-18.41,43.56h12.6l3.09-7.72h16.68l3.15,7.72h12.85L276.68,182.64L276.68,182.64z M265.93,209.21
			l4.88-12.29l4.82,12.29H265.93L265.93,209.21z"/>
		<path class="st0" d="M237.16,200.85l14.78,0.03l-1.7,3.99l-6.45-0.02c-0.83-0.06-3.13-0.37-4.26-1.2
			C238.49,202.88,237.69,201.76,237.16,200.85 M235.31,199.69c0,0,1.17,3.16,3.54,4.9c1.68,1.22,4.9,1.42,4.9,1.42l7.25,0.02
			l2.68-6.3L235.31,199.69L235.31,199.69z"/>
		<path class="st0" d="M255.57,192.36l-1.72,4.04l-15.41,0c-0.83-0.06-3.13-0.37-4.25-1.19c-1.06-0.77-1.85-1.9-2.38-2.81
			L255.57,192.36 M257.32,191.2l-27.36,0.05c0,0,1.17,3.16,3.55,4.9c1.68,1.22,4.9,1.42,4.9,1.42l16.21,0L257.32,191.2L257.32,191.2
			z"/>
		<path class="st0" d="M259.16,183.93l-1.7,3.99l-23.85,0.04c-0.83-0.06-3.13-0.37-4.25-1.19c-1.06-0.77-1.85-1.9-2.38-2.81
			L259.16,183.93 M260.91,182.77l-35.78,0.03c0,0,1.17,3.16,3.55,4.9c1.68,1.22,4.9,1.42,4.9,1.42l24.66-0.04L260.91,182.77
			L260.91,182.77z"/>
	</g>
</g>
<g>
	<path class="st0" d="M145.81,109.38l17.43,41.24h-10.33l-2.86-7l-0.29-0.72h-0.78H132.3h-0.78l-0.29,0.73l-2.8,6.99h-10.08
		l17.43-41.24H145.81 M134.12,135.95h1.7h9.7h1.7l-0.62-1.58l-4.82-12.29l-1.07-2.73l-1.08,2.73l-4.88,12.29L134.12,135.95
		 M146.57,108.22h-11.55l-18.41,43.56h12.6l3.09-7.72h16.68l3.15,7.72h12.85L146.57,108.22L146.57,108.22z M135.82,134.79
		l4.88-12.29l4.82,12.29H135.82L135.82,134.79z"/>
	<path class="st0" d="M107.05,126.43l14.78,0.03l-1.7,3.99l-6.45-0.02c-0.83-0.06-3.13-0.37-4.26-1.2
		C108.38,128.46,107.58,127.34,107.05,126.43 M105.2,125.27c0,0,1.17,3.16,3.54,4.9c1.68,1.22,4.9,1.42,4.9,1.42l7.25,0.02l2.68-6.3
		L105.2,125.27L105.2,125.27z"/>
	<path class="st0" d="M125.46,117.94l-1.72,4.04l-15.41,0c-0.83-0.06-3.13-0.37-4.25-1.19c-1.06-0.77-1.85-1.9-2.38-2.81
		L125.46,117.94 M127.21,116.78l-27.36,0.05c0,0,1.17,3.16,3.55,4.9c1.68,1.22,4.9,1.42,4.9,1.42l16.21,0L127.21,116.78
		L127.21,116.78z"/>
	<path class="st0" d="M129.05,109.51l-1.7,3.99l-23.85,0.04c-0.83-0.06-3.13-0.37-4.25-1.19c-1.06-0.77-1.85-1.9-2.38-2.81
		L129.05,109.51 M130.8,108.35l-35.78,0.03c0,0,1.17,3.16,3.55,4.9c1.68,1.22,4.9,1.42,4.9,1.42l24.66-0.04L130.8,108.35
		L130.8,108.35z"/>
</g>
</svg>
