<?xml version="1.0" encoding="utf-8"?>
<!-- Generator: Adobe Illustrator 24.2.1, SVG Export Plug-In . SVG Version: 6.00 Build 0)  -->
<svg version="1.1" id="Layer_1" xmlns="http://www.w3.org/2000/svg" xmlns:xlink="http://www.w3.org/1999/xlink" x="0px" y="0px"
	 viewBox="0 0 500 500" style="enable-background:new 0 0 500 500;" xml:space="preserve">
<style type="text/css">
	.st0{fill:#DC1928;}
	.st1{fill:#2B2B2B;}
</style>
<g>
	<g id="zsb35a.tif_1_">
		<g>
			<path class="st0" d="M110.15,246.3c0-0.32,0-0.64,0-0.96c0.19-1.98,0.29-3.97,0.6-5.93c1.18-7.71,4.27-14.48,9.77-20.12
				c3.39-3.47,7.37-5.27,12.25-4.99c3.75,0.21,7.52,0.28,11.26,0.61c4.83,0.42,9.65,1.02,14.32,2.45
				c7.25,2.23,11.82,7.04,13.71,14.34c0.6,2.32,1,4.73,1.12,7.12c0.43,8.04-0.34,15.99-2.28,23.81c-1.16,4.66-2.65,9.2-5.2,13.33
				c-3.23,5.24-7.83,8.5-13.91,9.63c-3.95,0.73-7.87,0.52-11.76-0.41c-14.71-3.52-26.58-16.43-29.1-31.69
				C110.54,251.1,110.4,248.69,110.15,246.3z M116.93,251.83c0.25,2.42,0.48,4.89,1.19,7.19c2.02,6.56,6.42,11.48,11.51,15.85
				c0.5,0.43,1.13,0.76,1.75,1c3.25,1.29,6.47,2.68,9.79,3.78c7.26,2.39,14.36-0.1,18.71-6.38c1.97-2.84,3.55-5.9,4.64-9.18
				c3.12-9.38,3.95-18.95,2.25-28.72c-0.96-5.49-3.99-9.23-9.3-11.03c-1.49-0.51-2.99-0.98-4.51-1.39
				c-3.97-1.08-8.06-1.21-12.13-1.51c-2.91-0.22-5.84-0.52-8.74-0.37c-5.46,0.28-9.65,2.82-11.91,7.94
				c-1.03,2.34-2.02,4.77-2.48,7.26c-0.62,3.33-1.04,6.22-1.04,10.09"/>
			<path class="st0" d="M163.37,244.89c0.21,5.69-0.83,11.2-2.71,16.54c-1.6,4.56-4.69,8.07-8.59,10.74
				c-1.33,0.91-3.26,1.11-4.95,1.3c-7.61,0.86-14.12-1.48-19.47-7c-0.13-0.14-0.27-0.28-0.42-0.4c-5.55-4.65-7.24-10.73-6.39-17.67
				c0.41-3.34,1.03-6.67,1.63-9.98c1.01-5.57,6.5-10.69,13.04-10.35c6.6,0.34,13.14,0.89,19.45,2.99c1.36,0.45,2.71,1.03,3.97,1.72
				c3.16,1.73,4.22,4.69,4.43,8.06C163.44,242.19,163.37,243.54,163.37,244.89z M126.62,250.46c0.1,0.8,0.16,2.42,0.52,3.98
				c1.47,6.37,5.09,10.99,11.38,13.14c5.56,1.9,10.48,0.05,13.41-4.96c3.86-6.59,5.87-13.74,6.1-21.38c0.09-3.1-0.99-4.61-3.94-5.47
				c-5.73-1.68-11.6-2.59-17.57-2.74c-3.94-0.1-5.96,1.24-7.43,4.9C127.58,241.68,126.7,245.59,126.62,250.46z"/>
			<path class="st0" d="M131.08,249.46c0.03-3.27,0.62-6.14,2.09-8.79c1.81-3.27,4.59-4.97,8.32-4.94c1.4,0.01,2.83,0.14,4.2,0.43
				c4.33,0.91,6.94,3.83,7.44,8.35c0.45,4.05-0.06,8.04-1.38,11.87c-1.71,4.93-6.3,7.1-11.6,5.67c-5.09-1.37-8.49-5.47-8.97-10.84
				C131.12,250.54,131.1,249.86,131.08,249.46z M147.79,248.09c0.05-2.91-0.82-4.51-2.88-5.14c-1.3-0.39-2.7-0.5-4.07-0.62
				c-0.8-0.07-1.56,0.26-1.89,1.08c-1.23,3.06-1.93,6.2-0.99,9.49c0.56,1.95,2.18,3.08,4.22,2.91c1.92-0.16,3.26-1.25,4.24-2.83
				C147.41,251.39,147.73,249.6,147.79,248.09z"/>
		</g>
	</g>
	<g>
		<path class="st1" d="M209.23,226.29v20.19h-2.02v-17.14l-7.07,11.83h-0.29l-7.07-11.83v17.14h-2.02v-20.19h2.51l6.72,11.25
			l6.72-11.25H209.23z"/>
		<path class="st1" d="M223.94,232.06h2.02l-6.17,15.75c-0.56,1.42-1.35,2.54-2.38,3.36c-1.03,0.82-2.18,1.18-3.45,1.08v-1.79
			c1.73,0.19,3.05-0.81,3.95-3l0.38-0.89l-6.46-14.51h2.02l5.42,12.09L223.94,232.06z"/>
		<path class="st1" d="M248.69,226.29v3.81h-5.45v16.39h-3.98v-16.39h-5.42v-3.81H248.69z"/>
		<path class="st1" d="M252.64,234.54c0.35-0.92,0.92-1.62,1.72-2.08s1.69-0.69,2.67-0.69v4.15c-1.13-0.13-2.15,0.1-3.04,0.69
			c-0.89,0.6-1.34,1.59-1.34,2.97v6.89h-3.72v-14.42h3.72V234.54z"/>
		<path class="st1" d="M269.61,232.06h3.72v14.42h-3.72v-1.7c-1.12,1.4-2.68,2.11-4.7,2.11c-1.92,0-3.57-0.74-4.95-2.21
			s-2.06-3.27-2.06-5.41c0-2.13,0.69-3.94,2.06-5.41s3.02-2.21,4.95-2.21c2.02,0,3.59,0.7,4.7,2.11V232.06z M262.74,242.2
			c0.75,0.76,1.7,1.14,2.86,1.14c1.15,0,2.11-0.38,2.87-1.14s1.14-1.74,1.14-2.93c0-1.19-0.38-2.17-1.14-2.93s-1.72-1.14-2.87-1.14
			c-1.15,0-2.11,0.38-2.86,1.14s-1.12,1.74-1.12,2.93C261.61,240.46,261.99,241.44,262.74,242.2z"/>
		<path class="st1" d="M287.63,226.29h3.72v20.19h-3.72v-1.7c-1.1,1.4-2.65,2.11-4.67,2.11c-1.94,0-3.6-0.74-4.98-2.21
			s-2.06-3.27-2.06-5.41c0-2.13,0.69-3.94,2.06-5.41s3.03-2.21,4.98-2.21c2.02,0,3.58,0.7,4.67,2.11V226.29z M280.78,242.2
			c0.76,0.76,1.72,1.14,2.87,1.14c1.15,0,2.11-0.38,2.86-1.14s1.12-1.74,1.12-2.93c0-1.19-0.38-2.17-1.12-2.93s-1.7-1.14-2.86-1.14
			c-1.15,0-2.11,0.38-2.87,1.14c-0.76,0.76-1.14,1.74-1.14,2.93C279.64,240.46,280.02,241.44,280.78,242.2z"/>
		<path class="st1" d="M296.61,230.33c-0.62,0-1.15-0.23-1.6-0.68c-0.45-0.45-0.68-0.99-0.68-1.6c0-0.62,0.23-1.15,0.68-1.62
			c0.45-0.46,0.99-0.69,1.6-0.69c0.63,0,1.18,0.23,1.63,0.69c0.45,0.46,0.68,1,0.68,1.62c0,0.62-0.23,1.15-0.68,1.6
			S297.24,230.33,296.61,230.33z M294.76,246.48v-14.42h3.72v14.42H294.76z"/>
		<path class="st1" d="M310.13,235.63h-3.26v6c0,0.5,0.12,0.87,0.38,1.1c0.25,0.23,0.62,0.36,1.1,0.39
			c0.48,0.03,1.08,0.02,1.79-0.01v3.38c-2.56,0.29-4.36,0.05-5.41-0.72c-1.05-0.77-1.57-2.14-1.57-4.12v-6h-2.51v-3.58h2.51v-2.91
			l3.72-1.12v4.04h3.26V235.63z"/>
		<path class="st1" d="M314.61,230.33c-0.62,0-1.15-0.23-1.6-0.68c-0.45-0.45-0.68-0.99-0.68-1.6c0-0.62,0.23-1.15,0.68-1.62
			c0.45-0.46,0.99-0.69,1.6-0.69c0.63,0,1.18,0.23,1.63,0.69c0.45,0.46,0.68,1,0.68,1.62c0,0.62-0.23,1.15-0.68,1.6
			S315.24,230.33,314.61,230.33z M312.76,246.48v-14.42h3.72v14.42H312.76z"/>
		<path class="st1" d="M332.17,244.68c-1.48,1.47-3.29,2.21-5.42,2.21s-3.94-0.74-5.41-2.21c-1.47-1.47-2.21-3.27-2.21-5.41
			c0-2.13,0.74-3.94,2.21-5.41c1.47-1.47,3.27-2.21,5.41-2.21s3.94,0.74,5.42,2.21c1.48,1.47,2.22,3.27,2.22,5.41
			C334.39,241.4,333.65,243.21,332.17,244.68z M323.97,242.12c0.74,0.75,1.67,1.12,2.78,1.12s2.05-0.38,2.8-1.12
			c0.75-0.75,1.13-1.7,1.13-2.86s-0.38-2.11-1.13-2.86c-0.75-0.75-1.68-1.13-2.8-1.13s-2.04,0.38-2.78,1.13
			c-0.74,0.75-1.11,1.7-1.11,2.86S323.23,241.37,323.97,242.12z"/>
		<path class="st1" d="M345.04,231.65c1.58,0,2.88,0.53,3.91,1.59c1.03,1.06,1.54,2.52,1.54,4.38v8.86h-3.72v-8.39
			c0-0.96-0.26-1.7-0.78-2.21c-0.52-0.51-1.21-0.76-2.08-0.76c-0.96,0-1.73,0.3-2.31,0.89c-0.58,0.6-0.87,1.49-0.87,2.68v7.79h-3.72
			v-14.42h3.72v1.62C341.64,232.33,343.08,231.65,345.04,231.65z"/>
		<path class="st1" d="M364.63,232.06h3.72v14.42h-3.72v-1.7c-1.12,1.4-2.68,2.11-4.7,2.11c-1.92,0-3.57-0.74-4.95-2.21
			s-2.06-3.27-2.06-5.41c0-2.13,0.69-3.94,2.06-5.41s3.02-2.21,4.95-2.21c2.02,0,3.59,0.7,4.7,2.11V232.06z M357.76,242.2
			c0.75,0.76,1.7,1.14,2.86,1.14c1.15,0,2.11-0.38,2.87-1.14s1.14-1.74,1.14-2.93c0-1.19-0.38-2.17-1.14-2.93s-1.72-1.14-2.87-1.14
			c-1.15,0-2.11,0.38-2.86,1.14s-1.12,1.74-1.12,2.93C356.63,240.46,357.01,241.44,357.76,242.2z"/>
		<path class="st1" d="M371.72,246.48v-21.06h3.72v21.06H371.72z"/>
		<path class="st1" d="M197.98,253.98c1.81,0,3.32,0.61,4.53,1.82c1.21,1.21,1.82,2.72,1.82,4.53s-0.61,3.32-1.82,4.53
			c-1.21,1.21-2.72,1.82-4.53,1.82h-5.19v7.5h-2.02v-20.19H197.98z M197.98,264.77c1.25,0,2.28-0.42,3.1-1.25
			c0.82-0.84,1.23-1.9,1.23-3.19c0-1.29-0.41-2.35-1.23-3.19c-0.82-0.84-1.85-1.25-3.1-1.25h-5.19v8.88H197.98z"/>
		<path class="st1" d="M207.5,274.17v-21.06h1.9v21.06H207.5z"/>
		<path class="st1" d="M225.85,259.75h1.9v14.42h-1.9v-2.83c-1.33,2.12-3.27,3.17-5.83,3.17c-2.06,0-3.81-0.73-5.26-2.19
			c-1.45-1.46-2.18-3.25-2.18-5.37c0-2.12,0.73-3.9,2.18-5.37c1.45-1.46,3.21-2.19,5.26-2.19c2.56,0,4.5,1.06,5.83,3.17V259.75z
			 M216.12,271.01c1.1,1.11,2.44,1.66,4.04,1.66c1.6,0,2.94-0.55,4.04-1.66c1.1-1.11,1.64-2.46,1.64-4.05c0-1.6-0.55-2.95-1.64-4.05
			c-1.1-1.11-2.44-1.66-4.04-1.66c-1.6,0-2.94,0.55-4.04,1.66c-1.1,1.11-1.64,2.46-1.64,4.05
			C214.48,268.56,215.03,269.91,216.12,271.01z"/>
		<path class="st1" d="M238.51,274.52c-2.17,0-3.98-0.73-5.42-2.18c-1.44-1.45-2.16-3.25-2.16-5.38s0.72-3.93,2.16-5.38
			s3.25-2.18,5.42-2.18c1.42,0,2.7,0.34,3.84,1.02s1.96,1.6,2.48,2.75l-1.56,0.89c-0.39-0.87-1.01-1.55-1.86-2.06
			c-0.86-0.51-1.82-0.76-2.9-0.76c-1.6,0-2.94,0.55-4.04,1.66c-1.1,1.11-1.64,2.46-1.64,4.05c0,1.6,0.55,2.95,1.64,4.05
			c1.1,1.11,2.44,1.66,4.04,1.66c1.08,0,2.04-0.25,2.88-0.76c0.85-0.51,1.51-1.2,1.99-2.06l1.59,0.92c-0.6,1.15-1.47,2.07-2.62,2.74
			C241.19,274.18,239.91,274.52,238.51,274.52z"/>
		<path class="st1" d="M254.23,259.4c2.13,0,3.86,0.75,5.18,2.26c1.32,1.51,1.98,3.29,1.98,5.35c0,0.21-0.02,0.51-0.06,0.89h-12.66
			c0.19,1.46,0.81,2.62,1.86,3.48c1.05,0.86,2.34,1.28,3.88,1.28c1.1,0,2.04-0.23,2.84-0.68s1.4-1.04,1.8-1.77l1.67,0.98
			c-0.63,1.02-1.5,1.83-2.6,2.42c-1.1,0.6-2.35,0.89-3.75,0.89c-2.27,0-4.11-0.71-5.54-2.13c-1.42-1.42-2.13-3.23-2.13-5.42
			c0-2.15,0.7-3.95,2.11-5.39C250.21,260.12,252.02,259.4,254.23,259.4z M254.23,261.25c-1.5,0-2.75,0.45-3.76,1.34
			c-1.01,0.89-1.61,2.05-1.8,3.48h10.76c-0.19-1.52-0.78-2.7-1.76-3.55C256.68,261.67,255.54,261.25,254.23,261.25z"/>
		<path class="st1" d="M283.16,253.98h3.98v20.19h-3.03l-8.65-12.35v12.35h-3.98v-20.19h3.03l8.65,12.32V253.98z"/>
		<path class="st1" d="M301.68,259.75h3.72v14.42h-3.72v-1.7c-1.12,1.4-2.68,2.11-4.7,2.11c-1.92,0-3.57-0.74-4.95-2.21
			c-1.38-1.47-2.06-3.27-2.06-5.41s0.69-3.94,2.06-5.41c1.38-1.47,3.02-2.21,4.95-2.21c2.02,0,3.59,0.7,4.7,2.11V259.75z
			 M294.82,269.89c0.75,0.76,1.7,1.14,2.86,1.14c1.15,0,2.11-0.38,2.87-1.14c0.76-0.76,1.14-1.74,1.14-2.93s-0.38-2.17-1.14-2.93
			s-1.72-1.14-2.87-1.14c-1.15,0-2.11,0.38-2.86,1.14s-1.12,1.74-1.12,2.93S294.07,269.13,294.82,269.89z"/>
		<path class="st1" d="M324.73,259.35c1.65,0,2.98,0.54,3.97,1.62c0.99,1.08,1.49,2.52,1.49,4.33v8.88h-3.72v-8.62
			c0-0.87-0.21-1.54-0.63-2.02c-0.42-0.48-1.02-0.72-1.79-0.72c-0.85,0-1.5,0.28-1.98,0.84c-0.47,0.56-0.71,1.37-0.71,2.42v8.11
			h-3.72v-8.62c0-0.87-0.21-1.54-0.63-2.02c-0.42-0.48-1.02-0.72-1.79-0.72c-0.83,0-1.49,0.28-1.98,0.84
			c-0.49,0.56-0.74,1.37-0.74,2.42v8.11h-3.72v-14.42h3.72v1.53c0.87-1.29,2.2-1.93,4.01-1.93c1.77,0,3.08,0.69,3.92,2.08
			C321.39,260.04,322.83,259.35,324.73,259.35z"/>
		<path class="st1" d="M336.5,268.49c0.5,1.81,1.86,2.71,4.07,2.71c1.42,0,2.5-0.48,3.23-1.44l3,1.73
			c-1.42,2.06-3.52,3.09-6.29,3.09c-2.39,0-4.3-0.72-5.74-2.16s-2.16-3.26-2.16-5.45c0-2.17,0.71-3.99,2.13-5.44
			c1.42-1.45,3.25-2.18,5.48-2.18c2.12,0,3.86,0.73,5.24,2.19c1.37,1.46,2.06,3.27,2.06,5.42c0,0.48-0.05,0.99-0.14,1.53H336.5z
			 M336.44,265.61h7.36c-0.21-0.98-0.65-1.71-1.31-2.19s-1.42-0.72-2.26-0.72c-1,0-1.83,0.26-2.48,0.76
			C337.09,263.97,336.65,264.68,336.44,265.61z"/>
	</g>
</g>
</svg>
